<?xml version="1.0" encoding="UTF-8"?>
<svg version="1.1" viewBox="0 0 1000 1000" width="1000" height="1000" xmlns="http://www.w3.org/2000/svg">
<path transform="translate(277,203)" d="m0 0 8 2 23 11 19 10 24 14 15 10 11 7 16 12 11 8 14 11v2l4 2 14 13 4 3v2l4 2v2l4 2 5 5 8-1 13-2 20-2h23l5 1 22 2 8 2h5l13-12 7-7 8-7 3-1v-2l11-9 13-11 15-11 33-22 11-7 11-6 18-10 20-9 9-4 7 1 4 2 4 9 4 27 3 45v46l-3 34-3 14-2 11-5 19-3 10-5 13-6 16-2 6h36l7 3 3 3 2 6v25l-3 6-5 4-2 1h-14l5 9 9 11 20 28v2h2l13 19 11 15 4 5 4 7 8 11 1 8-3 5h-2v2l-14 10h-2v2l-7 4-9 6h-2v2l-9 5-15 10-20 12-16 10-45 26-11 7-12 6-10 6-11 6-10 6-11 6-17 9-16 9-11 6-16 8-17 8-11 4-11 2h-20l-13-3-14-5-16-8-19-10-22-12-16-9-23-13-19-11-11-6-28-16-17-10-9-6-11-6-9-6-11-6-14-9-16-10-25-17-12-9-4-6 1-5 8-12 8-11 12-17 3-5h2l2-5 13-18 12-16 10-13 1-2h2l4-10h-16l-5-4-3-7v-27l4-6 5-3 5-1h34l-3-10-5-11-8-23-4-14-4-19-3-25-1-4-1-40 1-46 3-24 1-13 4-18 5-5z" fill="#08292E"/>
<path transform="translate(714,242)" d="m0 0h3l3 31 1 44-1 26-3 25-5 25-9 29-4 11 1 4 9 13 2 5-1 1-134 1-17 5-12 7-12 11-3 3h-53l-5-4-6-7-11-7-11-5-12-3-135-1v-3l10-16 1-5-7-21-7-28-4-23-2-21-1-20v-21l2-39 2-16 5 1 22 12 10 6 11 7 12 8 17 12 16 13 10 8 15 13 15 14 11 11 5 4h8l27-5 21-2h13l27 3 21 4h8l10-9 15-14 17-16 11-9 16-13 17-12 24-16 35-20z" fill="#FC4804"/>
<path transform="translate(283,572)" d="m0 0h3l8 14 7 9 9 10 13 9 15 7 13 4 14 2h30l13-2 16-5 16-7 2 2 9 24 10 28 3 8 5 12 6 9 7 7 10 7 7 3h11l10-4 10-8 9-10 8-16 5-17 11-33 5-12 6 2 11 5 16 5 12 2h34l20-4 12-5 15-8 12-11 8-9 8-14 2-3 6 2 26 15 13 7 7 3 7 9 2 4-25 17-21 13-16 10-27 16-13 8-10 5-22 13-18 10-24 14-14 7-14 8-30 16-19 10-13 5-13 2-11-1-17-6-25-13-16-9-15-8-16-9-20-11-17-10-25-14-15-9-11-6-20-12-16-9-14-9-13-8-17-11-13-9 1-4 8-10 7-3 22-12 19-11z" fill="#FEFEFD"/>
<path transform="translate(329,486)" d="m0 0h100l13 4 8 7 6 10 2 6 1 13-2 17-5 15-7 12-8 9-13 10-12 5-13 3-10 1h-18l-16-2-14-5-11-7-10-11-8-14-4-12-2-11v-28l3-9 7-8 9-4z" fill="#FC4804"/>
<path transform="translate(581,486)" d="m0 0h101l11 4 5 5 4 7 1 3 1 20-1 17-3 12-4 11-8 11-11 11-12 6-9 3-15 2h-20l-16-2-16-6-11-7-11-11-9-14-5-14-1-6v-23l3-10 6-9 6-5 9-4z" fill="#FC4804"/>
<path transform="translate(489,514)" d="m0 0h32l1 23 3 16 6 16 5 10 7 10 11 12 13 10 1 4-9 25-7 21-6 19-6 11-11 12-11 8-8 3h-11l-12-6-13-12-6-9-5-12-4-11-13-36-5-13 1-4 13-10 12-12 7-11 8-16 4-12 2-12z" fill="#FC4804"/>
<path transform="translate(717,280)" d="m0 0 3 1 1 36-1 26-3 25-5 25-9 29-5 12h-2l-6-8-11-14-11-12-6-7-9-9v-14l4-22 8-19 9-15 8-11 10-9 12-9 9-4z" fill="#FEFEFD"/>
<path transform="translate(291,280)" d="m0 0 9 3 15 9 12 11 11 14 8 16 5 11 3 8 3 17v15l-16 16-7 8-9 11-7 9-5 6h-2l-7-19-8-32-4-23-2-21-1-20v-21l1-17z" fill="#FEFEFD"/>
<path transform="translate(521,647)" d="m0 0 11 2 8 6 4 5 4 8v7l-8 16-11 12-11 8-8 3h-11l-12-6-13-12-6-9-5-12v-7l5-10 10-8 4-2z" fill="#03252A"/>
<path transform="translate(291,280)" d="m0 0 9 3 15 9 12 11 11 14 8 16 5 11 3 8 3 17v15l-16 16-7 8-9 11-7 9-6-2 5-5 11-12 2-1v-2l5-3 10-13 2-4 1-3-7-1-1-1v-21l-3-12-4-8-3-5-7-8-12-17-5-5-6-9v-5l-1-3-5-1-2 8v56h-1l-2-32v-21l1-17z" fill="#FEFEF2"/>
<path transform="translate(387,514)" d="m0 0h10l8 4 5 7 2 5v9l-4 8-6 5-8 3-9-1-6-3-6-7-2-7 1-10 7-9z" fill="#03252B"/>
<path transform="translate(615,514)" d="m0 0h9l9 4 5 8 1 3v11l-6 10-8 4-8 1-9-3-5-4-3-5-1-4v-9l4-8 7-6z" fill="#03252B"/>
<path transform="translate(733,542)" d="m0 0h2l13 17 13 18 10 15 4 7-8-2-22-12-20-12 2-9 4-14 1-7z" fill="#FC4804"/>
<path transform="translate(275,542)" d="m0 0h2l5 18 3 12-17 10-18 10-12 7-4-1 10-14 14-20 12-16z" fill="#FC4804"/>
<path transform="translate(724,573)" d="m0 0 6 2 26 15 13 7 7 3 7 9h-3l-5-4v-2l-12-3h-5l1 6 5 2 7 4-1 4-10 1-2-3-1-7-11-9-6-4-1-7-9-3-5-4h-4l2-6z" fill="#FEFEF2"/>
<path transform="translate(671,319)" d="m0 0 3 1-3 4-5 11-3 10-3 9-3 18 1 11 1 3-3 1-3-3v-14l4-22 8-19z" fill="#FEFEF2"/>
<path transform="translate(283,572)" d="m0 0h3l1 3-11 6-14 8-6 3-14 9-9 1v2h-2l2-4 10-5 20-11 19-11z" fill="#FEFEF2"/>
<path transform="translate(338,622)" d="m0 0 9 2 18 3h30l13-2 11-2-1 2h-4l-1 3-9 2-4-1-10 1-9 1v1h-13l-7-3-19-4z" fill="#FEFEF2"/>
<path transform="translate(442,620)" d="m0 0h2l17 47 2 4-1 4-11-22-4-14-1-6h-2z" fill="#FEFEF2"/>
<path transform="translate(593,624)" d="m0 0 8 1 12 2h34l12-1-4 2-7 1h-8l-1 2h-15l-19-3-12-3z" fill="#FFFFF2"/>
<path transform="translate(683,416)" d="m0 0 5 1 5 6v2l6-1v2l2 1-3 7h-2l-6-8-7-9z" fill="#FEFEF3"/>
<path transform="translate(440,613)" d="m0 0 2 2 1 4h-8l-4 3-4 2-4-1-1 1-3-2z" fill="#FEFEF3"/>
<path transform="translate(706,284)" d="m0 0h2l-2 4-5 2-5 5-8 7-4 4-1-4 8-7 10-8z" fill="#FFFFF2"/>
<path transform="translate(717,280)" d="m0 0 3 1v22h-1l-1-14-3-3h-6l-1-3z" fill="#FFFFF2"/>
<path transform="translate(545,738)" d="m0 0 2 1-1 3-9 2-4 1 3-4z" fill="#FFFFF2"/>
<path transform="translate(416,623)" d="m0 0h3l-1 2h-4l-1 3-9 2 2-1v-3z" fill="#FEFEF3"/>
<path transform="translate(690,424)" d="m0 0h2v2l5 2 2 1-1 5h-2l-6-8z" fill="#FEFEF8"/>
<path transform="translate(706,284)" d="m0 0h2l-2 4-5 2-4 4-2-2 9-7z" fill="#FEFEF3"/>
<path transform="translate(672,400)" d="m0 0 5 4 3 4-2 3-8-9z" fill="#FEFEF3"/>
<path transform="translate(717,280)" d="m0 0h2v6l-3-1v-2l-6 1v-2z" fill="#FEFEFA"/>
<path transform="translate(568,613)" d="m0 0 6 2-4 2-4 6-1-3z" fill="#FFFFF2"/>
</svg>
